# AST/ASF file generated using VICON BodyLanguage
# -----------------------------------------------
:version 1.10
:name VICON
:units
  mass 1.0
  length 0.45
  angle deg
:documentation
   .ast/.asf automatically generated from VICON data using
   VICON BodyBuilder and BodyLanguage model FoxedUp or BRILLIANT.MOD
:root
   order TX TY TZ RX RY RZ
   axis XYZ
   position 0 0 0  
   orientation 0 0 0 
:bonedata
  begin
     id 1 
     name lhipjoint
     direction 0.661853 -0.702389 0.261917 
     length 2.64193 
     axis 0 0 0  XYZ
  end
  begin
     id 2 
     name lfemur
     direction 0.34202 -0.939693 0  
     length 7.01722  
     axis 0 0 20  XYZ
    dof rx ry rz
    limits (-160.0 20.0)
           (-70.0 70.0)
           (-60.0 70.0)
  end
  begin
     id 3 
     name ltibia
     direction 0.34202 -0.939693 0   
     length 8.25008   
     axis 0 0 20   XYZ
    dof rx
    limits (-10.0 170.0)
  end
  begin
     id 4 
     name lfoot
     direction 0.0709916 -0.195048 0.978221   
     length 2.31941   
     axis -90 7.62852e-016 20   XYZ
    dof rx rz
    limits (-45.0 90.0)
           (-70.0 20.0)
  end
  begin
     id 5 
     name ltoes
     direction 1.53586e-011 -4.22017e-011 1   
     length 1.16486   
     axis -90 7.62852e-016 20   XYZ
    dof rx
    limits (-90.0 20.0)
  end
  begin
     id 6 
     name rhipjoint
     direction -0.638185 -0.721362 0.268992   
     length 2.57244  
     axis 0 0 0  XYZ 
  end
  begin
     id 7 
     name rfemur
     direction -0.34202 -0.939693 0   
     length 7.07017   
     axis 0 0 -20   XYZ
    dof rx ry rz
    limits (-160.0 20.0)
           (-70.0 70.0)
           (-70.0 60.0)
  end
  begin
     id 8 
     name rtibia
     direction -0.34202 -0.939693 0   
     length 8.20386   
     axis 0 0 -20   XYZ
    dof rx
    limits (-10.0 170.0)
 end
 begin
     id 9 
     name rfoot
     direction -0.0822429 -0.225961 0.970658   
     length 2.32215  
     axis -90 -7.62852e-016 -20   XYZ
    dof rx rz
    limits (-45.0 90.0)
           (-20.0 70.0)
  end
  begin
     id 10 
     name rtoes
     direction -1.53597e-011 -4.21689e-011 1   
     length 1.16333   
     axis -90 -7.62852e-016 -20   XYZ
    dof rx
    limits (-90.0 20.0)
  end
  begin
     id 11 
     name lowerback
     direction -0.0131557 0.998589 -0.0514484   
     length 2.14993   
     axis 0 0 0   XYZ
    dof rx ry rz
    limits (-20.0 45.0)
           (-30.0 30.0)
           (-30.0 30.0)
  end
  begin
     id 12 
     name upperback
     direction -0.000776481 0.999993 0.00352685   
     length 2.15301   
     axis 0 0 0   XYZ
    dof rx ry rz
    limits (-20.0 45.0)
           (-30.0 30.0)
           (-30.0 30.0)
  end
  begin
     id 13 
     name thorax
     direction 0.00438186 0.999609 0.0276143   
     length 2.15424   
     axis 0 0 0   XYZ
    dof rx ry rz
    limits (-20.0 45.0)
           (-30.0 30.0)
           (-30.0 30.0)
  end
  begin
     id 14 
     name lowerneck
     direction -0.0488006 0.998094 0.0377807   
     length 1.90481   
     axis 0 0 0   XYZ
    dof rx ry rz
    limits (-20.0 45.0)
           (-30.0 30.0)
           (-30.0 30.0)
  end
  begin
     id 15 
     name upperneck
     direction 0.0443769 0.990702 -0.12861   
     length 1.91305   
     axis 0 0 0   XYZ
    dof rx ry rz
    limits (-20.0 45.0)
           (-30.0 30.0)
           (-30.0 30.0)
  end
  begin
     id 16
     name head
     direction 0.0165599 0.998647 -0.0492982  
     length 1.92369  
     axis 0 0 0   XYZ
    dof rx ry rz
    limits (-20.0 45.0)
           (-30.0 30.0)
           (-30.0 30.0)
  end
  begin
     id 17 
     name lclavicle
     direction 0.911936 0.410197 -0.0105506  
     length 3.52622  
     axis 0 0 0   XYZ
    dof ry rz
    limits (-20.0 10.0)
           (0.0 20.0)
  end
  begin
     id 18 
     name lhumerus
     direction 1 -4.48974e-011 -2.48591e-028   
     length 5.47651   
     axis 180 -30 -90   XYZ
    dof rx ry rz
    limits (-60.0 90.0)
           (-90.0 90.0)
           (-90.0 90.0)
  end
  begin
     id 19
     name lradius
     direction 1 -4.48938e-011 -4.40099e-027   
     length 3.09058   
     axis 180 -30 -90   XYZ
    dof rx
    limits (-10.0 170.0)
  end
  begin
     id 20
     name lwrist
     direction 1 -4.49042e-011 -2.99852e-027   
     length 1.54529   
     axis 1.95339e-015 90 90   XYZ
    dof ry
    limits (-180.0 0.0)
 end
  begin
     id 21 
     name lhand
     direction 1 -4.48815e-011 -5.98193e-027   
     length 0.771611   
     axis 3.82337e-015 90 90   XYZ
    dof rx rz
    limits (-90.0 90.0)
           (-45.0 45.0)
  end
  begin
     id 22 
     name lfingers
     direction 1 -4.49034e-011 -1.1993e-026   
     length 0.622093   
     axis 7.64668e-015 90 90   XYZ
    dof rx
    limits (0.0 90.0)
  end
  begin
     id 23
     name lthumb
     direction 0.707107 -6.34867e-011 0.707107   
     length 0.893204   
     axis -90 45 -1.62303e-014   XYZ
    dof rx rz
    limits (-45.0 45.0)
           (-45.0 45.0)
  end
  begin
     id 24 
     name rclavicle
     direction -0.93442 0.355634 -0.0195692   
     length 3.62463  
     axis 0 0 0   XYZ 
    dof ry rz
    limits (-10.0 20.0)
           (-20.0 0.0)
  end
  begin
     id 25 
     name rhumerus
     direction -1 -4.48957e-011 -1.19147e-027  
     length 5.14182   
     axis 180 30 90   XYZ
    dof rx ry rz
    limits (-90.0 60.0)
           (-90.0 90.0)
           (-90.0 90.0)
  end
  begin
     id 26 
     name rradius
     direction -1 -4.48952e-011 -3.81062e-027   
     length 3.35565   
     axis 180 30 90   XYZ
    dof rx
    limits (-10.0 170.0)
  end
  begin
     id 27 
     name rwrist
     direction -1 -4.48973e-011 -2.99621e-027   
     length 1.67782   
     axis 1.95339e-015 -90 -90   XYZ
    dof ry
    limits (-180.0 0.0)
  end
  begin
     id 28
     name rhand
     direction -1 -4.48895e-011 -5.98727e-027   
     length 0.801042   
     axis 3.82337e-015 -90 -90   XYZ
    dof rx rz
    limits (-90.0 90.0)
           (-45.0 45.0)
  end
  begin
     id 29
     name rfingers
     direction -1 -4.49065e-011 -1.19972e-026   
     length 0.645821   
     axis 7.64668e-015 -90 -90   XYZ
    dof rx
    limits (0.0 90.0)
  end
  begin
     id 30
     name rthumb
     direction -0.707107 -6.34957e-011 0.707107   
     length 0.927273   
     axis -90 -45 1.62303e-014   XYZ
    dof rx rz
    limits (-45.0 45.0)
           (-45.0 45.0)
  end
:hierarchy
  begin
    root lhipjoint rhipjoint lowerback
    lhipjoint lfemur
    lfemur ltibia
    ltibia lfoot
    lfoot ltoes
    rhipjoint rfemur
    rfemur rtibia
    rtibia rfoot
    rfoot rtoes
    lowerback upperback
    upperback thorax
    thorax lowerneck lclavicle rclavicle
    lowerneck upperneck
    upperneck head
    lclavicle lhumerus
    lhumerus lradius
    lradius lwrist
    lwrist lhand lthumb
    lhand lfingers
    rclavicle rhumerus
    rhumerus rradius
    rradius rwrist
    rwrist rhand rthumb
    rhand rfingers
  end

#!OML:ASF E:\Style4\Style4.ASF
:FULLY-SPECIFIED
:DEGREES
430
root -0.691832 17.2603 -1.93417 1.66517 16.7305 5.09026
lowerback 12.6653 5.18857 -3.84837
upperback 10.6484 6.76556 -4.32448
thorax 4.33653 3.4122 -2.98171
lowerneck 4.82481 -9.75802 -8.55621
upperneck 6.61045 -14.1085 15.4951
head 2.87704 -7.00309 5.76471
rclavicle 7.05686e-014 -4.6118e-014
rhumerus 59.7014 -20.058 -37.7304
rradius 37.653
rwrist -5.05078
rhand 45.284 -1.34322
rfingers 7.12502
rthumb 66.6027 -5.60339
lclavicle 7.05686e-014 -4.6118e-014
lhumerus 56.9231 -14.8005 33.7604
lradius 85.0455
lwrist 0.217307
lhand 27.1271 43.4553
lfingers 7.12502
lthumb 51.1065 64.077
rfemur -24.0642 -12.9187 15.1918
rtibia 47.7222
rfoot -22.7874 -21.0862
rtoes -7.48139
lfemur -25.1673 -6.87211 -20.6764
ltibia 38.6731
lfoot -13.7526 -4.58385
ltoes -16.8059
431
root -0.721896 17.2303 -1.93478 1.78573 17.5268 5.4204
lowerback 12.766 5.22482 -3.73526
upperback 10.7597 6.82636 -4.1537
thorax 4.39518 3.44614 -2.87388
lowerneck 4.95799 -10.0622 -8.49924
upperneck 6.35554 -14.478 15.3104
head 2.81033 -7.19991 5.68945
rclavicle 6.16232e-014 -3.37934e-014
rhumerus 59.1787 -19.8362 -37.906
rradius 37.5287
rwrist -4.50464
rhand 45.4157 -1.17999
rfingers 7.12502
rthumb 66.7023 -5.24062
lclavicle 6.16232e-014 -3.37934e-014
lhumerus 55.5586 -15.0257 32.9202
lradius 86.7293
lwrist 0.477879
lhand 26.8178 43.349
lfingers 7.12502
lthumb 50.8246 64.1278
rfemur -24.3477 -13.7263 14.9157
rtibia 48.4318
rfoot -23.1818 -21.0806
rtoes -7.1502
lfemur -25.5105 -7.14676 -20.951
ltibia 38.9775
lfoot -13.7066 -5.06264
ltoes -16.4507
432
root -0.75123 17.2034 -1.93572 1.97245 18.2826 5.75005
lowerback 12.754 5.25365 -3.66965
upperback 10.8891 6.88073 -3.93392
thorax 4.52136 3.47036 -2.67645
lowerneck 5.1195 -10.3478 -8.51817
upperneck 6.01202 -14.8186 15.1319
head 2.71438 -7.38794 5.63369
rclavicle -1.85864e-014 3.47873e-014
rhumerus 58.829 -19.6487 -38.11
rradius 37.2761
rwrist -4.03998
rhand 45.4822 -0.764287
rfingers 7.12502
rthumb 66.7526 -4.72344
lclavicle -1.85864e-014 3.47873e-014
lhumerus 53.8459 -15.1464 32.002
lradius 88.6577
lwrist 0.857369
lhand 26.8858 42.8924
lfingers 7.12502
lthumb 50.8867 63.6368
rfemur -24.6992 -14.5417 14.6556
rtibia 49.133
rfoot -23.4899 -21.0286
rtoes -7.03694
lfemur -25.9154 -7.41878 -21.2226
ltibia 39.2716
lfoot -13.648 -5.39476
ltoes -16.5341
433
root -0.781196 17.1795 -1.93652 2.15317 18.9587 6.07781
lowerback 12.8209 5.32631 -3.46397
upperback 10.957 6.99697 -3.79451
thorax 4.56675 3.53911 -2.65548
lowerneck 5.44895 -10.6272 -8.63678
upperneck 5.6564 -15.1767 15.2026
head 2.61501 -7.59055 5.67919
rclavicle 5.86912e-014 -6.99722e-014
rhumerus 58.29 -19.5322 -38.3907
rradius 37.1012
rwrist -3.82452
rhand 45.7522 -1.0124
rfingers 7.12502
rthumb 66.9555 -4.55519
lclavicle 5.86912e-014 -6.99722e-014
lhumerus 52.2162 -15.4322 30.9436
lradius 90.6088
lwrist 1.27688
lhand 26.8494 42.6205
lfingers 7.12502
lthumb 50.8534 63.3833
rfemur -25.0357 -15.2299 14.4078
rtibia 49.8028
rfoot -23.7135 -20.8667
rtoes -6.60179
lfemur -26.2766 -7.6735 -21.4696
ltibia 39.5393
lfoot -13.5122 -5.79773
ltoes -15.6761
434
root -0.808886 17.1553 -1.93546 2.26662 19.6078 6.34029
lowerback 12.9542 5.37984 -3.11326
upperback 11.0192 7.09744 -3.693
thorax 4.59241 3.61168 -2.7584
lowerneck 5.64686 -10.9234 -8.74801
upperneck 5.44357 -15.5712 15.3303
head 2.5884 -7.80063 5.7273
rclavicle -4.59317e-014 -1.96548e-014
rhumerus 57.6688 -19.447 -38.7726
rradius 37.0331
rwrist -3.61842
rhand 46.1155 -1.46932
rfingers 7.12502
rthumb 67.2266 -4.43975
lclavicle -4.59317e-014 -1.96548e-014
lhumerus 50.6527 -15.7616 29.8557
lradius 92.475
lwrist 1.50375
lhand 26.7044 42.6486
lfingers 7.12502
lthumb 50.7212 63.4842
rfemur -25.2654 -15.8321 14.2068
rtibia 50.4147
rfoot -24.0683 -20.7151
rtoes -5.94946
lfemur -26.5574 -7.90047 -21.6654
ltibia 39.7853
lfoot -13.4336 -6.0921
ltoes -15.5031
435
root -0.83531 17.1333 -1.93356 2.34989 20.193 6.57602
lowerback 13.0416 5.44436 -2.86083
upperback 11.1524 7.20838 -3.49239
thorax 4.69634 3.67835 -2.69691
lowerneck 5.68688 -11.2331 -8.8087
upperneck 5.1948 -15.9651 15.3376
head 2.56445 -8.00549 5.72165
rclavicle 1.94312e-014 -3.79182e-014
rhumerus 57.0919 -19.3836 -38.7071
rradius 36.9612
rwrist -3.51779
rhand 46.3095 -1.66243
rfingers 7.12502
rthumb 67.3704 -4.32143
lclavicle 1.94312e-014 -3.79182e-014
lhumerus 49.0617 -15.9696 28.872
lradius 94.2988
lwrist 1.65021
lhand 26.6876 42.6667
lfingers 7.12502
lthumb 50.7058 63.5108
rfemur -25.4412 -16.3427 14.0245
rtibia 50.9572
rfoot -24.4295 -20.6931
rtoes -5.98245
lfemur -26.7836 -8.13246 -21.8307
ltibia 40.0159
lfoot -13.4132 -6.28325
ltoes -15.6805
436
root -0.860893 17.1107 -1.93316 2.4955 20.6947 6.91707
lowerback 13.1264 5.51243 -2.72547
upperback 11.2605 7.31212 -3.3224
thorax 4.76483 3.73505 -2.60439
lowerneck 5.87756 -11.4922 -8.72925
upperneck 4.79893 -16.2646 15.1962
head 2.43743 -8.17299 5.67155
rclavicle -1.49089e-015 -7.95139e-015
rhumerus 56.6038 -19.3559 -38.7121
rradius 36.86
rwrist -3.10285
rhand 46.6321 -1.52354
rfingers 7.12502
rthumb 67.6078 -3.65558
lclavicle -1.49089e-015 -7.95139e-015
lhumerus 47.3629 -16.192 27.8153
lradius 96.0705
lwrist 1.76793
lhand 26.6346 42.4496
lfingers 7.12502
lthumb 50.6575 63.3201
rfemur -25.6543 -16.7659 13.74
rtibia 51.4535
rfoot -24.7474 -20.7713
rtoes -6.01961
lfemur -27.0237 -8.29307 -22.1056
ltibia 40.2326
lfoot -13.4403 -6.41567
ltoes -16.3383
437
root -0.884583 17.0882 -1.93266 2.60052 21.1212 7.18153
lowerback 13.2764 5.54851 -2.49062
upperback 11.3191 7.37643 -3.20378
thorax 4.76244 3.78082 -2.62557
lowerneck 6.08245 -11.7046 -8.58195
upperneck 4.47351 -16.5055 15.057
head 2.3154 -8.30825 5.61693
rclavicle -5.91384e-014 7.83212e-014
rhumerus 56.1355 -19.3149 -39.0336
rradius 36.7764
rwrist -2.47922
rhand 46.7777 -0.965631
rfingers 7.12502
rthumb 67.7143 -2.85608
lclavicle -5.91384e-014 7.83212e-014
lhumerus 45.5695 -16.4335 26.5679
lradius 97.8216
lwrist 2.09873
lhand 26.8108 42.4351
lfingers 7.12502
lthumb 50.8183 63.2173
rfemur -25.8314 -17.0835 13.5279
rtibia 51.8873
rfoot -25.0613 -20.8581
rtoes -5.70103
lfemur -27.2344 -8.43554 -22.3
ltibia 40.4343
lfoot -13.4097 -6.53469
ltoes -16.617
438
root -0.904907 17.069 -1.9323 2.68132 21.475 7.41306
lowerback 13.3207 5.58889 -2.33427
upperback 11.4441 7.4464 -2.99661
thorax 4.8671 3.81939 -2.49744
lowerneck 6.27681 -11.9114 -8.52761
upperneck 4.08985 -16.7402 14.9436
head 2.18651 -8.44319 5.58569
rclavicle -1.5704e-014 1.19271e-015
rhumerus 55.719 -19.2248 -39.0807
rradius 36.8071
rwrist -2.24341
rhand 46.7273 -0.84721
rfingers 7.12502
rthumb 67.6775 -2.82156
lclavicle -1.5704e-014 1.19271e-015
lhumerus 43.6563 -16.5532 25.4262
lradius 99.5197
lwrist 2.59986
lhand 27.2544 42.3801
lfingers 7.12502
lthumb 51.2225 62.9364
rfemur -25.981 -17.3549 13.3472
rtibia 52.274
rfoot -25.2335 -20.9093
rtoes -5.68174
lfemur -27.4077 -8.54591 -22.4826
ltibia 40.6188
lfoot -13.4505 -6.49306
ltoes -17.7052
439
root -0.922555 17.051 -1.93229 2.72997 21.7365 7.67246
lowerback 13.2514 5.68859 -2.26232
upperback 11.682 7.59739 -2.7113
thorax 5.13781 3.88934 -2.23019
lowerneck 6.4092 -12.1684 -8.48228
upperneck 3.58744 -17.0284 14.7783
head 2.03531 -8.60611 5.53747
rclavicle 9.14409e-015 -3.02153e-014
rhumerus 55.484 -19.2714 -38.9188
rradius 36.7561
rwrist -2.13246
rhand 46.7475 -1.08048
rfingers 7.12502
rthumb 67.6923 -3.02116
lclavicle 9.14409e-015 -3.02153e-014
lhumerus 41.8222 -16.5836 24.4276
lradius 101.143
lwrist 3.14061
lhand 27.2923 42.5792
lfingers 7.12502
lthumb 51.2569 63.1161
rfemur -26.0896 -17.5177 13.1033
rtibia 52.5977
rfoot -25.4072 -21.0577
rtoes -5.81756
lfemur -27.5016 -8.63126 -22.7125
ltibia 40.7816
lfoot -13.46 -6.46954
ltoes -18.3253
440
root -0.938837 17.0349 -1.93178 2.76726 21.9446 7.89528
lowerback 13.2687 5.7507 -2.08334
upperback 11.8413 7.6997 -2.50188
thorax 5.29878 3.94563 -2.10908
lowerneck 6.46868 -12.3947 -8.46549
upperneck 3.26632 -17.2949 14.6467
head 1.95111 -8.74976 5.49483
rclavicle -1.15295e-014 3.02153e-014
rhumerus 55.5767 -19.4094 -39.3874
rradius 36.4264
rwrist -1.38302
rhand 46.9709 -0.81045
rfingers 7.12502
rthumb 67.855 -2.37653
lclavicle -1.15295e-014 3.02153e-014
lhumerus 39.9074 -16.6911 23.2802
lradius 102.756
lwrist 3.79819
lhand 27.606 43.1703
lfingers 7.12502
lthumb 51.5423 63.5439
rfemur -26.1787 -17.6521 12.8975
rtibia 52.8698
rfoot -25.5806 -21.1762
rtoes -5.96093
lfemur -27.558 -8.70421 -22.9109
ltibia 40.9098
lfoot -13.4065 -6.51675
ltoes -18.267
441
root -0.952387 17.0234 -1.93137 2.79938 22.0844 8.08087
lowerback 13.3804 5.76035 -1.78138
upperback 11.8777 7.73395 -2.39886
thorax 5.30335 3.98106 -2.17713
lowerneck 6.73569 -12.5488 -8.44337
upperneck 2.95581 -17.4765 14.6062
head 1.83351 -8.85815 5.49932
rclavicle -3.69739e-014 2.54444e-014
rhumerus 55.6895 -19.4303 -40.1246
rradius 36.0454
rwrist -0.351747
rhand 47.1086 -0.375316
rfingers 7.12502
rthumb 67.9548 -1.7078
lclavicle -3.69739e-014 2.54444e-014
lhumerus 37.8249 -16.9186 21.8994
lradius 104.289
lwrist 4.75652
lhand 28.8995 43.5903
lfingers 7.12502
lthumb 52.7149 63.2615
rfemur -26.2472 -17.7367 12.743
rtibia 53.0961
rfoot -25.7099 -21.1985
rtoes -5.99503
lfemur -27.5899 -8.79342 -23.0674
ltibia 40.9911
lfoot -13.4401 -6.54016
ltoes -18.1999
442
root -0.96268 17.0189 -1.93015 2.84111 22.1332 8.26521
lowerback 13.4522 5.75233 -1.57967
upperback 11.9005 7.73528 -2.27434
thorax 5.29682 3.99074 -2.16269
lowerneck 7.09009 -12.6538 -8.37366
upperneck 2.57486 -17.5822 14.4782
head 1.66024 -8.93306 5.48635
rclavicle 6.2816e-014 -3.26007e-014
rhumerus 55.5851 -19.1271 -40.1371
rradius 35.9032
rwrist -0.178948
rhand 47.0536 -0.642261
rfingers 7.12502
rthumb 67.915 -2.06828
lclavicle 6.2816e-014 -3.26007e-014
lhumerus 35.6121 -17.0713 20.5941
lradius 105.712
lwrist 5.91482
lhand 30.4757 43.9935
lfingers 7.12502
lthumb 54.1341 62.7404
rfemur -26.2987 -17.7436 12.5794
rtibia 53.2744
rfoot -25.8256 -21.2233
rtoes -6.14773
lfemur -27.5719 -8.83009 -23.2278
ltibia 41.0153
lfoot -13.5583 -6.46322
ltoes -18.5441
